<?xml version="1.0" encoding="UTF-8"?>
<svg xmlns="http://www.w3.org/2000/svg" id="Layer_1" data-name="Layer 1" viewBox="0 0 512 512" width="512" height="512" fill="url(#gradient1)">
<defs>
      <linearGradient id="gradient1">
        <stop offset="0%" stop-color="#ff8008"/>
        <stop offset="100%" stop-color="#ffc837"/>
      </linearGradient>
   </defs><path d="M40,72A32,32,0,1,0,8,40,32.036,32.036,0,0,0,40,72Zm0-48A16,16,0,1,1,24,40,16.018,16.018,0,0,1,40,24Z"/><path d="M507.839,39.668,484.886,27.114,472.333,4.161a8,8,0,0,0-14.038,0L445.742,27.114,422.789,39.668a8,8,0,0,0,0,14.037l22.953,12.554,12.553,22.953a8,8,0,0,0,14.038,0l12.553-22.953,22.953-12.554a8,8,0,0,0,0-14.037ZM475.152,53.346a8,8,0,0,0-3.18,3.18L465.313,68.7l-6.658-12.175a8,8,0,0,0-3.18-3.18L443.3,46.687l12.175-6.659a8,8,0,0,0,3.18-3.18l6.658-12.175,6.659,12.175a8,8,0,0,0,3.18,3.18l12.175,6.659Z"/><path d="M220.886,445.741l-12.553-22.953a8,8,0,0,0-14.038,0l-12.553,22.953-22.953,12.554a8,8,0,0,0,0,14.037l22.953,12.554,12.553,22.953a8,8,0,0,0,14.038,0l12.553-22.953,22.953-12.554a8,8,0,0,0,0-14.037Zm-9.733,26.231a8,8,0,0,0-3.18,3.18l-6.659,12.175-6.658-12.175a8,8,0,0,0-3.18-3.18L179.3,465.313l12.175-6.659a8,8,0,0,0,3.18-3.18l6.658-12.175,6.659,12.175a8,8,0,0,0,3.18,3.18l12.175,6.659Z"/><path d="M313.211,119.668l-22.953-12.554L277.706,84.161a8,8,0,0,0-14.038,0l-12.553,22.953-22.953,12.554a8,8,0,0,0,0,14.037l22.953,12.554,12.553,22.953a8,8,0,0,0,14.038,0l12.553-22.953,22.953-12.554a8,8,0,0,0,0-14.037Zm-32.687,13.678a8,8,0,0,0-3.18,3.18L270.687,148.7l-6.659-12.175a8,8,0,0,0-3.18-3.18l-12.175-6.659,12.175-6.659a8,8,0,0,0,3.18-3.18l6.659-12.175,6.658,12.175a8,8,0,0,0,3.18,3.18l12.175,6.659Z"/><rect x="184" y="24" width="16" height="16"/><rect x="56" y="464" width="16" height="16"/><path d="M38,392H48v20a28.031,28.031,0,0,0,28,28h48a28.031,28.031,0,0,0,28-28V392H297.5a49.622,49.622,0,0,0,4.26,4.78l-4.771,20.675A38,38,0,0,0,334.013,464h37.8A93.52,93.52,0,0,0,384,475.9V512h16V472a8,8,0,0,0-3.2-6.4c-28.165-21.124-28.787-48.488-28.8-49.6a8,8,0,0,0-5.029-7.428L323.292,392.7c-16.471-8.369-19.881-21.811-20.186-30.47l78.79,21.487a8,8,0,0,0,7.42-1.738l49.331-43.85a12,12,0,0,1,19.342,5.131l21.365,66.925c.01.033.021.065.032.1a12.01,12.01,0,0,1-.965,9.747c-.038.066-.075.134-.111.2l-21.365,40A8,8,0,0,0,456,464v48h16V466l20.372-38.141a28.033,28.033,0,0,0,2.209-22.587L480,359.6V222a38.043,38.043,0,0,0-38-38H430.246l-2-8H480a8,8,0,0,0,8-8V128a8,8,0,0,0-8-8H440a8,8,0,0,0-4.437,1.344l-17.983,11.989L405.821,86.3A39.941,39.941,0,0,0,367.015,56H119.526A39.827,39.827,0,0,0,81.347,84.069l-14.624,46.8-14.285-9.523A8,8,0,0,0,48,120H8a8,8,0,0,0-8,8v40a8,8,0,0,0,8,8H52.619l-2.5,8H38A38.043,38.043,0,0,0,0,222V354A38.043,38.043,0,0,0,38,392Zm98,20a12.013,12.013,0,0,1-12,12H76a12.013,12.013,0,0,1-12-12V392h72Zm216.45,9.6A80.737,80.737,0,0,0,361,448H334.013a22,22,0,0,1-21.437-26.947l3.277-14.2c.193.1.374.2.569.3s.4.19.606.272ZM298.1,344.282a8,8,0,0,0-9.866,5.777c-.153.611-.29,1.266-.42,1.94H56V336H308.4l2.551,11.053c.059.257.106.516.155.775Zm83.819,22.859L327.5,352.3a38.063,38.063,0,0,0-.959-8.844l-13.963-60.508A22,22,0,0,1,334.013,256H410.59a22,22,0,0,1,21.437,26.947q-.067.294-.113.592L425,328.853ZM296.476,272H152V256H303.031A37.8,37.8,0,0,0,296.476,272ZM410.59,240H398.114A24,24,0,0,1,439.9,253.832,37.786,37.786,0,0,0,410.59,240Zm31.833-104H472v24H424.246L421.7,149.815ZM16,160V136H45.578L61.75,146.781,57.619,160ZM96.619,88.841A23.9,23.9,0,0,1,119.526,72H367.015A23.965,23.965,0,0,1,390.3,90.18L413.754,184H66.881ZM16,222a22.025,22.025,0,0,1,22-22H442a22.025,22.025,0,0,1,22,22V325.151a27.967,27.967,0,0,0-21.372-5.764l5.06-33.153a38.33,38.33,0,0,0,.881-7.022A40,40,0,1,0,379.331,240H144a8,8,0,0,0-8,8v32a8,8,0,0,0,8,8H297.322l7.385,32H48a8,8,0,0,0-8,8v32a8,8,0,0,0,8,8H287.52a52.436,52.436,0,0,0,1.74,8H38a22.025,22.025,0,0,1-22-22Z"/><path d="M72,296a40,40,0,1,0-40-40A40.046,40.046,0,0,0,72,296Zm0-64a24,24,0,1,1-24,24A24.027,24.027,0,0,1,72,232Z"/></svg>
