<?xml version="1.0" encoding="iso-8859-1"?>
<!-- Generator: Adobe Illustrator 19.0.0, SVG Export Plug-In . SVG Version: 6.00 Build 0)  -->
<svg version="1.1" id="Capa_1" xmlns="http://www.w3.org/2000/svg" xmlns:xlink="http://www.w3.org/1999/xlink" x="0px" y="0px"
	 viewBox="0 0 480.022 480.022" style="enable-background:new 0 0 480.022 480.022;" xml:space="preserve" fill="url(#gradient1)">
<defs>
      <linearGradient id="gradient1">
        <stop offset="0%" stop-color="#ff8008"/>
        <stop offset="100%" stop-color="#ffc837"/>
      </linearGradient>
   </defs>
<g>
	<g>
		<path d="M127.177,92.435l-24-48c-1.973-3.954-6.777-5.56-10.73-3.587c-0.002,0.001-0.004,0.002-0.006,0.003
			c-3.954,1.972-5.56,6.776-3.587,10.73c0.001,0.002,0.002,0.004,0.003,0.006l24,48c1.975,3.954,6.782,5.559,10.736,3.584
			C127.548,101.196,129.152,96.39,127.177,92.435z"/>
	</g>
</g>
<g>
	<g>
		<path d="M159.177,92.435l-24-48c-1.973-3.954-6.776-5.56-10.73-3.587c-0.002,0.001-0.004,0.002-0.006,0.003
			c-3.954,1.972-5.56,6.776-3.587,10.73c0.001,0.002,0.002,0.004,0.003,0.006l24,48c1.975,3.954,6.782,5.559,10.736,3.584
			C159.548,101.196,161.152,96.39,159.177,92.435z"/>
	</g>
</g>
<g>
	<g>
		<path d="M191.177,92.435l-24-48c-1.973-3.954-6.776-5.56-10.73-3.587c-0.002,0.001-0.004,0.002-0.006,0.003
			c-3.954,1.972-5.56,6.776-3.587,10.73c0.001,0.002,0.002,0.004,0.003,0.006l24,48c1.975,3.954,6.782,5.559,10.736,3.584
			C191.548,101.196,193.152,96.39,191.177,92.435z"/>
	</g>
</g>
<g>
	<g>
		<path d="M223.177,92.435l-24-48c-1.973-3.954-6.776-5.56-10.73-3.587c-0.002,0.001-0.004,0.002-0.006,0.003
			c-3.954,1.972-5.56,6.776-3.587,10.73c0.001,0.002,0.002,0.004,0.003,0.006l24,48c1.975,3.954,6.782,5.559,10.736,3.584
			C223.548,101.196,225.152,96.39,223.177,92.435z"/>
	</g>
</g>
<g>
	<g>
		<path d="M255.177,92.435l-24-48c-1.973-3.954-6.776-5.56-10.73-3.587c-0.002,0.001-0.004,0.002-0.006,0.003
			c-3.954,1.972-5.56,6.776-3.587,10.73c0.001,0.002,0.002,0.004,0.003,0.006l24,48c1.975,3.954,6.782,5.559,10.736,3.584
			C255.548,101.196,257.152,96.39,255.177,92.435z"/>
	</g>
</g>
<g>
	<g>
		<path d="M287.137,92.435l-24-48c-1.973-3.933-6.752-5.534-10.696-3.584c-3.962,1.955-5.59,6.752-3.635,10.714
			c0.004,0.007,0.007,0.015,0.011,0.022l24,48c1.975,3.954,6.782,5.559,10.736,3.584S289.112,96.39,287.137,92.435z"/>
	</g>
</g>
<g>
	<g>
		<path d="M319.137,92.435l-24-48c-1.973-3.933-6.752-5.534-10.696-3.584c-3.962,1.955-5.59,6.752-3.635,10.714
			c0.004,0.007,0.007,0.015,0.011,0.022l24,48c1.975,3.954,6.782,5.559,10.736,3.584S321.112,96.39,319.137,92.435z"/>
	</g>
</g>
<g>
	<g>
		<path d="M351.177,92.435l-24-48c-1.973-3.954-6.776-5.56-10.73-3.587c-0.002,0.001-0.004,0.002-0.006,0.003
			c-3.954,1.972-5.559,6.776-3.587,10.73c0.001,0.002,0.002,0.004,0.003,0.006l24,48c1.975,3.954,6.782,5.559,10.736,3.584
			C351.548,101.196,353.152,96.39,351.177,92.435z"/>
	</g>
</g>
<g>
	<g>
		<path d="M63.169,172.435c-1.975-3.954-6.782-5.559-10.736-3.584l-48,24c-3.954,1.971-5.562,6.774-3.592,10.729
			c1.356,2.72,4.136,4.437,7.176,4.432c1.238,0,2.46-0.288,3.568-0.84l48-24C63.54,181.196,65.144,176.39,63.169,172.435z"/>
	</g>
</g>
<g>
	<g>
		<path d="M63.177,204.435c-1.975-3.954-6.782-5.559-10.736-3.584l-48,24c-3.954,1.973-5.56,6.776-3.587,10.73
			c0.001,0.002,0.002,0.004,0.003,0.006c1.972,3.954,6.776,5.56,10.73,3.587c0.002-0.001,0.004-0.002,0.006-0.003l48-24
			C63.548,213.196,65.152,208.39,63.177,204.435z"/>
	</g>
</g>
<g>
	<g>
		<path d="M63.177,236.435c-1.975-3.954-6.782-5.559-10.736-3.584l-48,24c-3.954,1.973-5.56,6.776-3.587,10.73
			c0.001,0.002,0.002,0.004,0.003,0.006c1.972,3.954,6.776,5.559,10.73,3.587c0.002-0.001,0.004-0.002,0.006-0.003l48-24
			C63.548,245.196,65.152,240.39,63.177,236.435z"/>
	</g>
</g>
<g>
	<g>
		<path d="M63.177,268.435c-1.975-3.954-6.782-5.559-10.736-3.584l-48,24c-3.954,1.973-5.56,6.776-3.587,10.73
			c0.001,0.002,0.002,0.004,0.003,0.006c1.972,3.954,6.776,5.559,10.73,3.587c0.002-0.001,0.004-0.002,0.006-0.003l48-24
			C63.548,277.196,65.152,272.39,63.177,268.435z"/>
	</g>
</g>
<g>
	<g>
		<path d="M63.177,300.435c-1.975-3.954-6.782-5.559-10.736-3.584l-48,24c-3.954,1.973-5.56,6.776-3.587,10.73
			c0.001,0.002,0.002,0.004,0.003,0.006c1.972,3.954,6.776,5.559,10.73,3.587c0.002-0.001,0.004-0.002,0.006-0.003l48-24
			C63.548,309.196,65.152,304.39,63.177,300.435z"/>
	</g>
</g>
<g>
	<g>
		<path d="M63.177,332.435c-1.975-3.954-6.782-5.559-10.736-3.584l-48,24c-3.954,1.973-5.56,6.776-3.587,10.73
			c0.001,0.002,0.002,0.004,0.003,0.006c1.972,3.954,6.776,5.559,10.73,3.587c0.002-0.001,0.004-0.002,0.006-0.003l48-24
			C63.548,341.196,65.152,336.39,63.177,332.435z"/>
	</g>
</g>
<g>
	<g>
		<path d="M63.177,364.435c-1.975-3.954-6.782-5.559-10.736-3.584l-48,24c-3.954,1.973-5.56,6.776-3.587,10.73
			c0.001,0.002,0.002,0.004,0.003,0.006c1.972,3.954,6.776,5.559,10.73,3.587c0.002-0.001,0.004-0.002,0.006-0.003l48-24
			C63.548,373.196,65.152,368.39,63.177,364.435z"/>
	</g>
</g>
<g>
	<g>
		<path d="M63.177,396.435c-1.975-3.954-6.782-5.559-10.736-3.584l-48,24c-3.954,1.973-5.56,6.776-3.587,10.73
			c0.001,0.002,0.002,0.004,0.003,0.006c1.972,3.954,6.776,5.559,10.73,3.587c0.002-0.001,0.004-0.002,0.006-0.003l48-24
			C63.548,405.196,65.152,400.39,63.177,396.435z"/>
	</g>
</g>
<g>
	<g>
		<path d="M479.169,172.435c-1.975-3.954-6.782-5.559-10.736-3.584l-48,24c-3.954,1.971-5.562,6.774-3.592,10.729
			c1.356,2.72,4.136,4.437,7.176,4.432c1.238,0,2.46-0.288,3.568-0.84l48-24C479.54,181.196,481.144,176.39,479.169,172.435z"/>
	</g>
</g>
<g>
	<g>
		<path d="M479.177,204.435c-1.975-3.954-6.782-5.559-10.736-3.584l-48,24c-3.954,1.973-5.56,6.777-3.587,10.73
			c0.001,0.002,0.002,0.004,0.003,0.006c1.972,3.954,6.776,5.559,10.73,3.587c0.002-0.001,0.004-0.002,0.006-0.003l48-24
			C479.548,213.196,481.152,208.39,479.177,204.435z"/>
	</g>
</g>
<g>
	<g>
		<path d="M479.177,236.435c-1.975-3.954-6.782-5.559-10.736-3.584l-48,24c-3.954,1.973-5.56,6.777-3.587,10.73
			c0.001,0.002,0.002,0.004,0.003,0.006c1.972,3.953,6.776,5.559,10.73,3.587c0.002-0.001,0.004-0.002,0.006-0.003l48-24
			C479.548,245.196,481.152,240.39,479.177,236.435z"/>
	</g>
</g>
<g>
	<g>
		<path d="M479.177,268.435c-1.975-3.954-6.782-5.559-10.736-3.584l-48,24c-3.954,1.973-5.56,6.777-3.587,10.73
			c0.001,0.002,0.002,0.004,0.003,0.006c1.972,3.953,6.776,5.559,10.73,3.587c0.002-0.001,0.004-0.002,0.006-0.003l48-24
			C479.548,277.196,481.152,272.39,479.177,268.435z"/>
	</g>
</g>
<g>
	<g>
		<path d="M479.177,300.435c-1.975-3.954-6.782-5.559-10.736-3.584l-48,24c-3.954,1.973-5.56,6.777-3.587,10.73
			c0.001,0.002,0.002,0.004,0.003,0.006c1.972,3.953,6.776,5.559,10.73,3.587c0.002-0.001,0.004-0.002,0.006-0.003l48-24
			C479.548,309.196,481.152,304.39,479.177,300.435z"/>
	</g>
</g>
<g>
	<g>
		<path d="M479.177,332.435c-1.975-3.954-6.782-5.559-10.736-3.584l-48,24c-3.954,1.973-5.56,6.777-3.587,10.73
			c0.001,0.002,0.002,0.004,0.003,0.006c1.972,3.953,6.776,5.559,10.73,3.587c0.002-0.001,0.004-0.002,0.006-0.003l48-24
			C479.548,341.196,481.152,336.39,479.177,332.435z"/>
	</g>
</g>
<g>
	<g>
		<path d="M479.177,364.435c-1.975-3.954-6.782-5.559-10.736-3.584l-48,24c-3.954,1.973-5.56,6.777-3.587,10.73
			c0.001,0.002,0.002,0.004,0.003,0.006c1.972,3.953,6.776,5.559,10.73,3.587c0.002-0.001,0.004-0.002,0.006-0.003l48-24
			C479.548,373.196,481.152,368.39,479.177,364.435z"/>
	</g>
</g>
<g>
	<g>
		<path d="M479.177,396.435c-1.975-3.954-6.782-5.559-10.736-3.584l-48,24c-3.954,1.973-5.56,6.777-3.587,10.73
			c0.001,0.002,0.002,0.004,0.003,0.006c1.972,3.953,6.776,5.559,10.73,3.587c0.002-0.001,0.004-0.002,0.006-0.003l48-24
			C479.548,405.196,481.152,400.39,479.177,396.435z"/>
	</g>
</g>
<g>
	<g>
		<path d="M472.017,144.011h-16v-120c0-13.255-10.745-24-24-24h-384c-13.255,0-24,10.745-24,24v120h-16c-4.418,0-8,3.582-8,8
			s3.582,8,8,8h48c4.418,0,8-3.582,8-8s-3.582-8-8-8h-16v-64h24v16c0,4.418,3.582,8,8,8s8-3.582,8-8v-48c0-4.418-3.582-8-8-8
			s-8,3.582-8,8v16h-24v-40c0-4.418,3.582-8,8-8h384c4.418,0,8,3.582,8,8v40h-24V46.675c0-4.418-3.582-8-8-8s-8,3.582-8,8v48
			c0,4.418,3.582,8,8,8s8-3.582,8-8V80.011h24v64h-16c-4.418,0-8,3.582-8,8s3.582,8,8,8h48c4.418,0,8-3.582,8-8
			S476.436,144.011,472.017,144.011z"/>
	</g>
</g>
<g>
	<g>
		<path d="M56.017,440.011h-48c-4.418,0-8,3.582-8,8s3.582,8,8,8h16v16c0,4.418,3.582,8,8,8s8-3.582,8-8v-16h16c4.418,0,8-3.582,8-8
			S60.436,440.011,56.017,440.011z"/>
	</g>
</g>
<g>
	<g>
		<path d="M472.017,440.011h-48c-4.418,0-8,3.582-8,8s3.582,8,8,8h16v16c0,4.418,3.582,8,8,8s8-3.582,8-8v-16h16
			c4.418,0,8-3.582,8-8S476.436,440.011,472.017,440.011z"/>
	</g>
</g>
<g>
	<g>
		<path d="M385.673,92.435l-24-48c-1.945-3.967-6.737-5.607-10.704-3.663c-3.967,1.944-5.607,6.737-3.663,10.704
			c0.018,0.037,0.036,0.074,0.055,0.11l24,48c1.355,2.712,4.128,4.425,7.16,4.424c4.418-0.002,7.998-3.586,7.996-8.004
			C386.516,94.767,386.228,93.544,385.673,92.435z"/>
	</g>
</g>
<g>
	<g>
		<path d="M391.009,316.955l-30.304-24.232c-1.108-0.89-1.961-2.058-2.472-3.384l-11.68-54.4
			c-2.432-11.02-12.179-18.883-23.464-18.928H156.817c-11.268-0.052-21.036,7.788-23.424,18.8l-12,53.968
			c-0.402,1.776-1.395,3.364-2.816,4.504l-29.6,23.68c-5.685,4.554-8.984,11.452-8.96,18.736v80.312
			c0.021,6.788,2.93,13.246,8,17.76v30.24c0,8.837,7.163,16,16,16h32c8.837,0,16-7.163,16-16v-24h176v24c0,8.837,7.163,16,16,16h32
			c8.837,0,16-7.163,16-16v-30.24c5.07-4.514,7.979-10.972,8-17.76v-80.312C400.031,328.404,396.714,321.502,391.009,316.955z
			 M218.153,238.331l4.208-6.32h100.728c3.772-0.001,7.032,2.632,7.824,6.32l10.704,49.68H224.713
			c5.888-11.098,3.871-24.736-4.976-33.656C215.471,250.068,214.809,243.371,218.153,238.331z M184.089,238.331l4.208-6.32h15.144
			c-5.88,11.101-3.861,24.736,4.984,33.656c4.258,4.28,4.926,10.962,1.6,16l-4.208,6.32h-15.16
			c5.88-11.101,3.861-24.736-4.984-33.656C181.42,250.047,180.759,243.366,184.089,238.331z M149.041,238.275
			c0.795-3.658,4.033-6.266,7.776-6.264h12.56c-5.88,11.101-3.861,24.736,4.984,33.656c4.258,4.28,4.926,10.962,1.6,16l-4.208,6.32
			h-33.76L149.041,238.275z M136.017,464.011h-32v-24h32V464.011z M376.017,464.011h-32v-24h32V464.011z M384.017,416.011
			c0,4.418-3.582,8-8,8h-272c-4.418,0-8-3.582-8-8v-8h288V416.011z M384.017,392.011h-288v-56.312c-0.005-2.429,1.099-4.727,3-6.24
			l29.6-23.68c0.649-0.556,1.269-1.146,1.856-1.768h218.944c0.432,0.4,0.8,0.8,1.296,1.2l30.296,24.24
			c1.9,1.517,3.007,3.816,3.008,6.248V392.011z"/>
	</g>
</g>
<g>
	<g>
		<path d="M132.017,328.011c-15.464,0-28,12.536-28,28c0,15.464,12.536,28,28,28s28-12.536,28-28
			C160.017,340.547,147.481,328.011,132.017,328.011z M132.017,368.011c-6.627,0-12-5.373-12-12c0-6.627,5.373-12,12-12
			c6.627,0,12,5.373,12,12C144.017,362.639,138.645,368.011,132.017,368.011z"/>
	</g>
</g>
<g>
	<g>
		<path d="M348.017,328.011c-15.464,0-28,12.536-28,28c0,15.464,12.536,28,28,28c15.464,0,28-12.536,28-28
			C376.017,340.547,363.481,328.011,348.017,328.011z M348.017,368.011c-6.627,0-12-5.373-12-12c0-6.627,5.373-12,12-12
			c6.627,0,12,5.373,12,12C360.017,362.639,354.645,368.011,348.017,368.011z"/>
	</g>
</g>
<g>
	<g>
		<path d="M288.017,328.011h-96c-8.837,0-16,7.163-16,16v24c0,8.837,7.163,16,16,16h96c8.837,0,16-7.163,16-16v-24
			C304.017,335.175,296.854,328.011,288.017,328.011z M288.017,368.011h-96v-24h96V368.011z"/>
	</g>
</g>
<g>
	<g>
		<path d="M260.105,164.691l-12.656-31.648c-1.214-3.04-4.158-5.033-7.432-5.032c-3.274-0.001-6.218,1.992-7.432,5.032
			l-12.656,31.648c-4.385,11.094,1.054,23.643,12.149,28.027c11.094,4.385,23.643-1.054,28.027-12.149
			C262.121,175.469,262.121,169.792,260.105,164.691z M244.017,176.715c-2.109,2.263-5.652,2.387-7.915,0.279
			c-1.747-1.628-2.269-4.184-1.301-6.367l5.216-13.08l5.232,13.08C246.105,172.719,245.619,175.12,244.017,176.715z"/>
	</g>
</g>
<g>
	<g>
		<path d="M342.513,164.691l-12.664-31.648c-1.214-3.04-4.158-5.033-7.432-5.032c-3.271,0.002-6.211,1.995-7.424,5.032
			l-12.664,31.648c-4.379,11.096,1.066,23.642,12.163,28.021c11.097,4.379,23.642-1.066,28.021-12.163
			C344.524,175.455,344.524,169.786,342.513,164.691z M326.417,176.715c-2.118,2.254-5.662,2.365-7.916,0.247
			c-1.73-1.625-2.247-4.163-1.292-6.336l5.224-13.08l5.232,13.08c0.837,2.106,0.323,4.51-1.304,6.088H326.417z"/>
	</g>
</g>
<g>
	<g>
		<path d="M174.513,164.691l-12.664-31.648c-1.214-3.04-4.159-5.033-7.432-5.032c-3.271,0.002-6.211,1.995-7.424,5.032
			l-12.664,31.648c-4.379,11.096,1.066,23.642,12.163,28.021s23.642-1.066,28.021-12.163
			C176.524,175.455,176.524,169.786,174.513,164.691z M158.417,176.715c-2.118,2.254-5.662,2.365-7.916,0.247
			c-1.73-1.625-2.247-4.163-1.292-6.336l5.224-13.08l5.232,13.08c0.837,2.106,0.323,4.51-1.304,6.088H158.417z"/>
	</g>
</g>
<g>
</g>
<g>
</g>
<g>
</g>
<g>
</g>
<g>
</g>
<g>
</g>
<g>
</g>
<g>
</g>
<g>
</g>
<g>
</g>
<g>
</g>
<g>
</g>
<g>
</g>
<g>
</g>
<g>
</g>
</svg>
