<svg id="icons" enable-background="new 0 0 64 64" height="512" viewBox="0 0 64 64" width="512" xmlns="http://www.w3.org/2000/svg" fill="url(#gradient1)">
<defs>
      <linearGradient id="gradient1">
        <stop offset="0%" stop-color="#ff8008"/>
        <stop offset="100%" stop-color="#ffc837"/>
      </linearGradient>
   </defs><g><g><path d="m53.496 63.996h-23.997c-2.757 0-5-2.243-5-5v-16.996c0-.553.447-1 1-1s1 .447 1 1v16.996c0 1.654 1.346 3 3 3h23.997c1.654 0 3-1.346 3-3v-16.996c0-.553.447-1 1-1s1 .447 1 1v16.996c0 2.757-2.243 5-5 5z"/></g><g><path d="m55.496 40h-28.999c-.553 0-1-.447-1-1v-5.999c0-.553.447-1 1-1h28.999c.553 0 1 .447 1 1v5.999c0 .553-.447 1-1 1zm-27.999-2h26.999v-3.999h-26.999z"/></g><g><path d="m53.497 34.001h-13.999c-.553 0-1-.447-1-1v-6c0-.553.447-1 1-1h13.999c.553 0 1 .447 1 1v6c0 .553-.447 1-1 1zm-12.999-2h11.999v-4h-11.999z"/></g><g><path d="m51.499 28.001h-9.002c-.553 0-1-.447-1-1v-6c0-.553.447-1 1-1h9.002c.553 0 1 .447 1 1v6c0 .553-.447 1-1 1zm-8.002-2h7.002v-4h-7.002z"/></g><g><path d="m61.501 43.005h-3c-.033 0-.066-.002-.1-.005h-33.904c-.553 0-1-.447-1-1v-3c0-.553.447-1 1-1h33.004v-12.999h-6.002c-.553 0-1-.447-1-1v-3c0-.553.447-1 1-1h10.002c.553 0 1 .447 1 1v21.004c0 .553-.447 1-1 1zm-2.9-2h1.9v-19.004h-8.002v1h6.002c.553 0 1 .447 1 1v14.999c0 .553-.447 1-1 1h-33.004v1h33.004c.033 0 .066.002.1.005z"/></g><g><path d="m35.502 34.001h-6.999c-.553 0-1-.447-1-1v-5.001c0-.553.447-1 1-1h6.999c.553 0 1 .447 1 1v5.001c0 .553-.447 1-1 1zm-5.999-2h4.999v-3.001h-4.999z"/></g><g><path d="m34.502 16.001c-.553 0-1-.447-1-1 0-7.168-5.832-13-13-13s-13 5.832-13 13c0 .553-.447 1-1 1s-1-.447-1-1c0-8.271 6.729-15 15-15s15 6.729 15 15c0 .553-.447 1-1 1z"/></g><g><path d="m29.503 16.001c-.553 0-1-.447-1-1 0-4.412-3.589-8.001-8.001-8.001s-8.001 3.589-8.001 8.001c0 .553-.447 1-1 1s-1-.447-1-1c0-5.515 4.486-10.001 10.001-10.001s10.001 4.486 10.001 10.001c0 .553-.447 1-1 1z"/></g><g><path d="m34.502 29c-.553 0-1-.447-1-1v-12.999c0-.553.447-1 1-1s1 .447 1 1v12.999c0 .553-.447 1-1 1z"/></g><g><path d="m29.503 29c-.553 0-1-.447-1-1v-12.999c0-.553.447-1 1-1s1 .447 1 1v12.999c0 .553-.447 1-1 1z"/></g><g><path d="m11.501 42.004c-.553 0-1-.447-1-1v-26.003c0-.553.447-1 1-1s1 .447 1 1v26.003c0 .553-.447 1-1 1z"/></g><g><path d="m6.502 42.004c-.553 0-1-.447-1-1v-26.003c0-.553.447-1 1-1s1 .447 1 1v26.003c0 .553-.447 1-1 1z"/></g><g><path d="m12.502 50.001h-7c-.553 0-1-.447-1-1v-7.997c0-.553.447-1 1-1h7c.553 0 1 .447 1 1v7.997c0 .553-.447 1-1 1zm-6-2h5v-5.997h-5z"/></g><g><path d="m15.524 62.002c-.004 0-.012 0-.02 0h-13.005c-.308 0-.599-.142-.788-.385-.189-.242-.257-.56-.182-.858l3.003-12.001c.111-.444.511-.757.97-.757h7c.459 0 .858.313.97.757l2.957 11.814c.062.131.096.276.096.43-.001.553-.448 1-1.001 1zm-11.744-2h10.443l-2.502-10.001h-5.439z"/></g><g><path d="m3.001 63.999c-.553 0-1-.447-1-1v-1.997c0-.553.447-1 1-1s1 .447 1 1v1.997c0 .553-.447 1-1 1z"/></g><g><path d="m6 63.999c-.553 0-1-.447-1-1v-1.997c0-.553.447-1 1-1s1 .447 1 1v1.997c0 .553-.447 1-1 1z"/></g><g><path d="m9.001 63.999c-.553 0-1-.447-1-1v-1.997c0-.553.447-1 1-1s1 .447 1 1v1.997c0 .553-.447 1-1 1z"/></g><g><path d="m12.002 63.999c-.553 0-1-.447-1-1v-1.997c0-.553.447-1 1-1s1 .447 1 1v1.997c0 .553-.447 1-1 1z"/></g><g><path d="m15.003 63.999c-.553 0-1-.447-1-1v-1.997c0-.553.447-1 1-1s1 .447 1 1v1.997c0 .553-.447 1-1 1z"/></g></g></svg>
