<svg id="icons" enable-background="new 0 0 64 64" height="512" viewBox="0 0 64 64" width="512" xmlns="http://www.w3.org/2000/svg" fill="url(#gradient1)">
<defs>
      <linearGradient id="gradient1">
        <stop offset="0%" stop-color="#ff8008"/>
        <stop offset="100%" stop-color="#ffc837"/>
      </linearGradient>
   </defs><g><g><path d="m63 42.499c-.553 0-1-.447-1-1 0-14.888-12.112-27-27.001-27-.553 0-1-.447-1-1s.447-1 1-1c15.991 0 29.001 13.01 29.001 29 0 .553-.447 1-1 1z"/></g><g><path d="m60 42.499c-.553 0-1-.447-1-1 0-13.233-10.767-24-24.001-24-.553 0-1-.447-1-1s.447-1 1-1c14.337 0 26.001 11.663 26.001 26 0 .553-.447 1-1 1z"/></g><g><path d="m63 51.501c-.553 0-1-.447-1-1v-9.002c0-.553.447-1 1-1s1 .447 1 1v9.002c0 .553-.447 1-1 1z"/></g><g><path d="m60 48.498c-.553 0-1-.447-1-1v-5.999c0-.553.447-1 1-1s1 .447 1 1v5.999c0 .553-.447 1-1 1z"/></g><g><path d="m63 51.501h-62c-.553 0-1-.447-1-1s.447-1 1-1h62c.553 0 1 .447 1 1s-.447 1-1 1z"/></g><g><path d="m34.999 14.499h-33.999c-.553 0-1-.447-1-1s.447-1 1-1h33.999c.553 0 1 .447 1 1s-.447 1-1 1z"/></g><g><path d="m1 51.501c-.553 0-1-.447-1-1v-37.002c0-.553.447-1 1-1s1 .447 1 1v37.002c0 .553-.447 1-1 1z"/></g><g><path d="m4 41.491c-.553 0-1-.447-1-1v-23.992c0-.553.447-1 1-1s1 .447 1 1v23.992c0 .553-.447 1-1 1z"/></g><g><path d="m34.999 17.499h-30.999c-.553 0-1-.447-1-1s.447-1 1-1h30.999c.553 0 1 .447 1 1s-.447 1-1 1z"/></g><g><path d="m60 48.498h-48.998c-.553 0-1-.447-1-1s.447-1 1-1h48.998c.553 0 1 .447 1 1s-.447 1-1 1z"/></g><g><path d="m10.998 48.498c-.256 0-.512-.098-.707-.293l-6.998-7.002c-.391-.391-.391-1.023 0-1.414s1.023-.391 1.414 0l6.998 7.002c.391.391.391 1.023 0 1.414-.195.195-.451.293-.707.293z"/></g><g><path d="m11.002 48.498c-.553 0-1-.448-1-1l.001-6.999c0-.553.448-1 1-1 .553 0 1 .448 1 1l-.001 6.999c0 .553-.448 1-1 1z"/></g><g><path d="m11.003 41.499h-7.003c-.553 0-1-.447-1-1s.447-1 1-1h7.003c.553 0 1 .447 1 1s-.447 1-1 1z"/></g></g></svg>
