<svg xmlns="http://www.w3.org/2000/svg" xmlns:xlink="http://www.w3.org/1999/xlink"><defs>
      <linearGradient id="gradient1">
        <stop offset="0%" stop-color="#ff8008"/>
        <stop offset="100%" stop-color="#ffc837"/>
      </linearGradient>
   
      <linearGradient id="gradient1">
        <stop offset="0%" stop-color="#ff8008"/>
        <stop offset="100%" stop-color="#ffc837"/>
      </linearGradient>
   
      <linearGradient id="gradient1">
        <stop offset="0%" stop-color="#ff8008"/>
        <stop offset="100%" stop-color="#ffc837"/>
      </linearGradient>
   
      <linearGradient id="gradient1">
        <stop offset="0%" stop-color="#ff8008"/>
        <stop offset="100%" stop-color="#ffc837"/>
      </linearGradient>
   </defs><symbol id="icon-car-service" viewBox="0 0 512 512">
<path d="M40,72A32,32,0,1,0,8,40,32.036,32.036,0,0,0,40,72Zm0-48A16,16,0,1,1,24,40,16.018,16.018,0,0,1,40,24Z"/><path d="M507.839,39.668,484.886,27.114,472.333,4.161a8,8,0,0,0-14.038,0L445.742,27.114,422.789,39.668a8,8,0,0,0,0,14.037l22.953,12.554,12.553,22.953a8,8,0,0,0,14.038,0l12.553-22.953,22.953-12.554a8,8,0,0,0,0-14.037ZM475.152,53.346a8,8,0,0,0-3.18,3.18L465.313,68.7l-6.658-12.175a8,8,0,0,0-3.18-3.18L443.3,46.687l12.175-6.659a8,8,0,0,0,3.18-3.18l6.658-12.175,6.659,12.175a8,8,0,0,0,3.18,3.18l12.175,6.659Z"/><path d="M220.886,445.741l-12.553-22.953a8,8,0,0,0-14.038,0l-12.553,22.953-22.953,12.554a8,8,0,0,0,0,14.037l22.953,12.554,12.553,22.953a8,8,0,0,0,14.038,0l12.553-22.953,22.953-12.554a8,8,0,0,0,0-14.037Zm-9.733,26.231a8,8,0,0,0-3.18,3.18l-6.659,12.175-6.658-12.175a8,8,0,0,0-3.18-3.18L179.3,465.313l12.175-6.659a8,8,0,0,0,3.18-3.18l6.658-12.175,6.659,12.175a8,8,0,0,0,3.18,3.18l12.175,6.659Z"/><path d="M313.211,119.668l-22.953-12.554L277.706,84.161a8,8,0,0,0-14.038,0l-12.553,22.953-22.953,12.554a8,8,0,0,0,0,14.037l22.953,12.554,12.553,22.953a8,8,0,0,0,14.038,0l12.553-22.953,22.953-12.554a8,8,0,0,0,0-14.037Zm-32.687,13.678a8,8,0,0,0-3.18,3.18L270.687,148.7l-6.659-12.175a8,8,0,0,0-3.18-3.18l-12.175-6.659,12.175-6.659a8,8,0,0,0,3.18-3.18l6.659-12.175,6.658,12.175a8,8,0,0,0,3.18,3.18l12.175,6.659Z"/><rect x="184" y="24" width="16" height="16"/><rect x="56" y="464" width="16" height="16"/><path d="M38,392H48v20a28.031,28.031,0,0,0,28,28h48a28.031,28.031,0,0,0,28-28V392H297.5a49.622,49.622,0,0,0,4.26,4.78l-4.771,20.675A38,38,0,0,0,334.013,464h37.8A93.52,93.52,0,0,0,384,475.9V512h16V472a8,8,0,0,0-3.2-6.4c-28.165-21.124-28.787-48.488-28.8-49.6a8,8,0,0,0-5.029-7.428L323.292,392.7c-16.471-8.369-19.881-21.811-20.186-30.47l78.79,21.487a8,8,0,0,0,7.42-1.738l49.331-43.85a12,12,0,0,1,19.342,5.131l21.365,66.925c.01.033.021.065.032.1a12.01,12.01,0,0,1-.965,9.747c-.038.066-.075.134-.111.2l-21.365,40A8,8,0,0,0,456,464v48h16V466l20.372-38.141a28.033,28.033,0,0,0,2.209-22.587L480,359.6V222a38.043,38.043,0,0,0-38-38H430.246l-2-8H480a8,8,0,0,0,8-8V128a8,8,0,0,0-8-8H440a8,8,0,0,0-4.437,1.344l-17.983,11.989L405.821,86.3A39.941,39.941,0,0,0,367.015,56H119.526A39.827,39.827,0,0,0,81.347,84.069l-14.624,46.8-14.285-9.523A8,8,0,0,0,48,120H8a8,8,0,0,0-8,8v40a8,8,0,0,0,8,8H52.619l-2.5,8H38A38.043,38.043,0,0,0,0,222V354A38.043,38.043,0,0,0,38,392Zm98,20a12.013,12.013,0,0,1-12,12H76a12.013,12.013,0,0,1-12-12V392h72Zm216.45,9.6A80.737,80.737,0,0,0,361,448H334.013a22,22,0,0,1-21.437-26.947l3.277-14.2c.193.1.374.2.569.3s.4.19.606.272ZM298.1,344.282a8,8,0,0,0-9.866,5.777c-.153.611-.29,1.266-.42,1.94H56V336H308.4l2.551,11.053c.059.257.106.516.155.775Zm83.819,22.859L327.5,352.3a38.063,38.063,0,0,0-.959-8.844l-13.963-60.508A22,22,0,0,1,334.013,256H410.59a22,22,0,0,1,21.437,26.947q-.067.294-.113.592L425,328.853ZM296.476,272H152V256H303.031A37.8,37.8,0,0,0,296.476,272ZM410.59,240H398.114A24,24,0,0,1,439.9,253.832,37.786,37.786,0,0,0,410.59,240Zm31.833-104H472v24H424.246L421.7,149.815ZM16,160V136H45.578L61.75,146.781,57.619,160ZM96.619,88.841A23.9,23.9,0,0,1,119.526,72H367.015A23.965,23.965,0,0,1,390.3,90.18L413.754,184H66.881ZM16,222a22.025,22.025,0,0,1,22-22H442a22.025,22.025,0,0,1,22,22V325.151a27.967,27.967,0,0,0-21.372-5.764l5.06-33.153a38.33,38.33,0,0,0,.881-7.022A40,40,0,1,0,379.331,240H144a8,8,0,0,0-8,8v32a8,8,0,0,0,8,8H297.322l7.385,32H48a8,8,0,0,0-8,8v32a8,8,0,0,0,8,8H287.52a52.436,52.436,0,0,0,1.74,8H38a22.025,22.025,0,0,1-22-22Z"/><path d="M72,296a40,40,0,1,0-40-40A40.046,40.046,0,0,0,72,296Zm0-64a24,24,0,1,1-24,24A24.027,24.027,0,0,1,72,232Z"/></symbol><symbol id="icon-car-wash" viewBox="0 0 480.022 480.022">

<g>
	<g>
		<path d="M127.177,92.435l-24-48c-1.973-3.954-6.777-5.56-10.73-3.587c-0.002,0.001-0.004,0.002-0.006,0.003
			c-3.954,1.972-5.56,6.776-3.587,10.73c0.001,0.002,0.002,0.004,0.003,0.006l24,48c1.975,3.954,6.782,5.559,10.736,3.584
			C127.548,101.196,129.152,96.39,127.177,92.435z"/>
	</g>
</g>
<g>
	<g>
		<path d="M159.177,92.435l-24-48c-1.973-3.954-6.776-5.56-10.73-3.587c-0.002,0.001-0.004,0.002-0.006,0.003
			c-3.954,1.972-5.56,6.776-3.587,10.73c0.001,0.002,0.002,0.004,0.003,0.006l24,48c1.975,3.954,6.782,5.559,10.736,3.584
			C159.548,101.196,161.152,96.39,159.177,92.435z"/>
	</g>
</g>
<g>
	<g>
		<path d="M191.177,92.435l-24-48c-1.973-3.954-6.776-5.56-10.73-3.587c-0.002,0.001-0.004,0.002-0.006,0.003
			c-3.954,1.972-5.56,6.776-3.587,10.73c0.001,0.002,0.002,0.004,0.003,0.006l24,48c1.975,3.954,6.782,5.559,10.736,3.584
			C191.548,101.196,193.152,96.39,191.177,92.435z"/>
	</g>
</g>
<g>
	<g>
		<path d="M223.177,92.435l-24-48c-1.973-3.954-6.776-5.56-10.73-3.587c-0.002,0.001-0.004,0.002-0.006,0.003
			c-3.954,1.972-5.56,6.776-3.587,10.73c0.001,0.002,0.002,0.004,0.003,0.006l24,48c1.975,3.954,6.782,5.559,10.736,3.584
			C223.548,101.196,225.152,96.39,223.177,92.435z"/>
	</g>
</g>
<g>
	<g>
		<path d="M255.177,92.435l-24-48c-1.973-3.954-6.776-5.56-10.73-3.587c-0.002,0.001-0.004,0.002-0.006,0.003
			c-3.954,1.972-5.56,6.776-3.587,10.73c0.001,0.002,0.002,0.004,0.003,0.006l24,48c1.975,3.954,6.782,5.559,10.736,3.584
			C255.548,101.196,257.152,96.39,255.177,92.435z"/>
	</g>
</g>
<g>
	<g>
		<path d="M287.137,92.435l-24-48c-1.973-3.933-6.752-5.534-10.696-3.584c-3.962,1.955-5.59,6.752-3.635,10.714
			c0.004,0.007,0.007,0.015,0.011,0.022l24,48c1.975,3.954,6.782,5.559,10.736,3.584S289.112,96.39,287.137,92.435z"/>
	</g>
</g>
<g>
	<g>
		<path d="M319.137,92.435l-24-48c-1.973-3.933-6.752-5.534-10.696-3.584c-3.962,1.955-5.59,6.752-3.635,10.714
			c0.004,0.007,0.007,0.015,0.011,0.022l24,48c1.975,3.954,6.782,5.559,10.736,3.584S321.112,96.39,319.137,92.435z"/>
	</g>
</g>
<g>
	<g>
		<path d="M351.177,92.435l-24-48c-1.973-3.954-6.776-5.56-10.73-3.587c-0.002,0.001-0.004,0.002-0.006,0.003
			c-3.954,1.972-5.559,6.776-3.587,10.73c0.001,0.002,0.002,0.004,0.003,0.006l24,48c1.975,3.954,6.782,5.559,10.736,3.584
			C351.548,101.196,353.152,96.39,351.177,92.435z"/>
	</g>
</g>
<g>
	<g>
		<path d="M63.169,172.435c-1.975-3.954-6.782-5.559-10.736-3.584l-48,24c-3.954,1.971-5.562,6.774-3.592,10.729
			c1.356,2.72,4.136,4.437,7.176,4.432c1.238,0,2.46-0.288,3.568-0.84l48-24C63.54,181.196,65.144,176.39,63.169,172.435z"/>
	</g>
</g>
<g>
	<g>
		<path d="M63.177,204.435c-1.975-3.954-6.782-5.559-10.736-3.584l-48,24c-3.954,1.973-5.56,6.776-3.587,10.73
			c0.001,0.002,0.002,0.004,0.003,0.006c1.972,3.954,6.776,5.56,10.73,3.587c0.002-0.001,0.004-0.002,0.006-0.003l48-24
			C63.548,213.196,65.152,208.39,63.177,204.435z"/>
	</g>
</g>
<g>
	<g>
		<path d="M63.177,236.435c-1.975-3.954-6.782-5.559-10.736-3.584l-48,24c-3.954,1.973-5.56,6.776-3.587,10.73
			c0.001,0.002,0.002,0.004,0.003,0.006c1.972,3.954,6.776,5.559,10.73,3.587c0.002-0.001,0.004-0.002,0.006-0.003l48-24
			C63.548,245.196,65.152,240.39,63.177,236.435z"/>
	</g>
</g>
<g>
	<g>
		<path d="M63.177,268.435c-1.975-3.954-6.782-5.559-10.736-3.584l-48,24c-3.954,1.973-5.56,6.776-3.587,10.73
			c0.001,0.002,0.002,0.004,0.003,0.006c1.972,3.954,6.776,5.559,10.73,3.587c0.002-0.001,0.004-0.002,0.006-0.003l48-24
			C63.548,277.196,65.152,272.39,63.177,268.435z"/>
	</g>
</g>
<g>
	<g>
		<path d="M63.177,300.435c-1.975-3.954-6.782-5.559-10.736-3.584l-48,24c-3.954,1.973-5.56,6.776-3.587,10.73
			c0.001,0.002,0.002,0.004,0.003,0.006c1.972,3.954,6.776,5.559,10.73,3.587c0.002-0.001,0.004-0.002,0.006-0.003l48-24
			C63.548,309.196,65.152,304.39,63.177,300.435z"/>
	</g>
</g>
<g>
	<g>
		<path d="M63.177,332.435c-1.975-3.954-6.782-5.559-10.736-3.584l-48,24c-3.954,1.973-5.56,6.776-3.587,10.73
			c0.001,0.002,0.002,0.004,0.003,0.006c1.972,3.954,6.776,5.559,10.73,3.587c0.002-0.001,0.004-0.002,0.006-0.003l48-24
			C63.548,341.196,65.152,336.39,63.177,332.435z"/>
	</g>
</g>
<g>
	<g>
		<path d="M63.177,364.435c-1.975-3.954-6.782-5.559-10.736-3.584l-48,24c-3.954,1.973-5.56,6.776-3.587,10.73
			c0.001,0.002,0.002,0.004,0.003,0.006c1.972,3.954,6.776,5.559,10.73,3.587c0.002-0.001,0.004-0.002,0.006-0.003l48-24
			C63.548,373.196,65.152,368.39,63.177,364.435z"/>
	</g>
</g>
<g>
	<g>
		<path d="M63.177,396.435c-1.975-3.954-6.782-5.559-10.736-3.584l-48,24c-3.954,1.973-5.56,6.776-3.587,10.73
			c0.001,0.002,0.002,0.004,0.003,0.006c1.972,3.954,6.776,5.559,10.73,3.587c0.002-0.001,0.004-0.002,0.006-0.003l48-24
			C63.548,405.196,65.152,400.39,63.177,396.435z"/>
	</g>
</g>
<g>
	<g>
		<path d="M479.169,172.435c-1.975-3.954-6.782-5.559-10.736-3.584l-48,24c-3.954,1.971-5.562,6.774-3.592,10.729
			c1.356,2.72,4.136,4.437,7.176,4.432c1.238,0,2.46-0.288,3.568-0.84l48-24C479.54,181.196,481.144,176.39,479.169,172.435z"/>
	</g>
</g>
<g>
	<g>
		<path d="M479.177,204.435c-1.975-3.954-6.782-5.559-10.736-3.584l-48,24c-3.954,1.973-5.56,6.777-3.587,10.73
			c0.001,0.002,0.002,0.004,0.003,0.006c1.972,3.954,6.776,5.559,10.73,3.587c0.002-0.001,0.004-0.002,0.006-0.003l48-24
			C479.548,213.196,481.152,208.39,479.177,204.435z"/>
	</g>
</g>
<g>
	<g>
		<path d="M479.177,236.435c-1.975-3.954-6.782-5.559-10.736-3.584l-48,24c-3.954,1.973-5.56,6.777-3.587,10.73
			c0.001,0.002,0.002,0.004,0.003,0.006c1.972,3.953,6.776,5.559,10.73,3.587c0.002-0.001,0.004-0.002,0.006-0.003l48-24
			C479.548,245.196,481.152,240.39,479.177,236.435z"/>
	</g>
</g>
<g>
	<g>
		<path d="M479.177,268.435c-1.975-3.954-6.782-5.559-10.736-3.584l-48,24c-3.954,1.973-5.56,6.777-3.587,10.73
			c0.001,0.002,0.002,0.004,0.003,0.006c1.972,3.953,6.776,5.559,10.73,3.587c0.002-0.001,0.004-0.002,0.006-0.003l48-24
			C479.548,277.196,481.152,272.39,479.177,268.435z"/>
	</g>
</g>
<g>
	<g>
		<path d="M479.177,300.435c-1.975-3.954-6.782-5.559-10.736-3.584l-48,24c-3.954,1.973-5.56,6.777-3.587,10.73
			c0.001,0.002,0.002,0.004,0.003,0.006c1.972,3.953,6.776,5.559,10.73,3.587c0.002-0.001,0.004-0.002,0.006-0.003l48-24
			C479.548,309.196,481.152,304.39,479.177,300.435z"/>
	</g>
</g>
<g>
	<g>
		<path d="M479.177,332.435c-1.975-3.954-6.782-5.559-10.736-3.584l-48,24c-3.954,1.973-5.56,6.777-3.587,10.73
			c0.001,0.002,0.002,0.004,0.003,0.006c1.972,3.953,6.776,5.559,10.73,3.587c0.002-0.001,0.004-0.002,0.006-0.003l48-24
			C479.548,341.196,481.152,336.39,479.177,332.435z"/>
	</g>
</g>
<g>
	<g>
		<path d="M479.177,364.435c-1.975-3.954-6.782-5.559-10.736-3.584l-48,24c-3.954,1.973-5.56,6.777-3.587,10.73
			c0.001,0.002,0.002,0.004,0.003,0.006c1.972,3.953,6.776,5.559,10.73,3.587c0.002-0.001,0.004-0.002,0.006-0.003l48-24
			C479.548,373.196,481.152,368.39,479.177,364.435z"/>
	</g>
</g>
<g>
	<g>
		<path d="M479.177,396.435c-1.975-3.954-6.782-5.559-10.736-3.584l-48,24c-3.954,1.973-5.56,6.777-3.587,10.73
			c0.001,0.002,0.002,0.004,0.003,0.006c1.972,3.953,6.776,5.559,10.73,3.587c0.002-0.001,0.004-0.002,0.006-0.003l48-24
			C479.548,405.196,481.152,400.39,479.177,396.435z"/>
	</g>
</g>
<g>
	<g>
		<path d="M472.017,144.011h-16v-120c0-13.255-10.745-24-24-24h-384c-13.255,0-24,10.745-24,24v120h-16c-4.418,0-8,3.582-8,8
			s3.582,8,8,8h48c4.418,0,8-3.582,8-8s-3.582-8-8-8h-16v-64h24v16c0,4.418,3.582,8,8,8s8-3.582,8-8v-48c0-4.418-3.582-8-8-8
			s-8,3.582-8,8v16h-24v-40c0-4.418,3.582-8,8-8h384c4.418,0,8,3.582,8,8v40h-24V46.675c0-4.418-3.582-8-8-8s-8,3.582-8,8v48
			c0,4.418,3.582,8,8,8s8-3.582,8-8V80.011h24v64h-16c-4.418,0-8,3.582-8,8s3.582,8,8,8h48c4.418,0,8-3.582,8-8
			S476.436,144.011,472.017,144.011z"/>
	</g>
</g>
<g>
	<g>
		<path d="M56.017,440.011h-48c-4.418,0-8,3.582-8,8s3.582,8,8,8h16v16c0,4.418,3.582,8,8,8s8-3.582,8-8v-16h16c4.418,0,8-3.582,8-8
			S60.436,440.011,56.017,440.011z"/>
	</g>
</g>
<g>
	<g>
		<path d="M472.017,440.011h-48c-4.418,0-8,3.582-8,8s3.582,8,8,8h16v16c0,4.418,3.582,8,8,8s8-3.582,8-8v-16h16
			c4.418,0,8-3.582,8-8S476.436,440.011,472.017,440.011z"/>
	</g>
</g>
<g>
	<g>
		<path d="M385.673,92.435l-24-48c-1.945-3.967-6.737-5.607-10.704-3.663c-3.967,1.944-5.607,6.737-3.663,10.704
			c0.018,0.037,0.036,0.074,0.055,0.11l24,48c1.355,2.712,4.128,4.425,7.16,4.424c4.418-0.002,7.998-3.586,7.996-8.004
			C386.516,94.767,386.228,93.544,385.673,92.435z"/>
	</g>
</g>
<g>
	<g>
		<path d="M391.009,316.955l-30.304-24.232c-1.108-0.89-1.961-2.058-2.472-3.384l-11.68-54.4
			c-2.432-11.02-12.179-18.883-23.464-18.928H156.817c-11.268-0.052-21.036,7.788-23.424,18.8l-12,53.968
			c-0.402,1.776-1.395,3.364-2.816,4.504l-29.6,23.68c-5.685,4.554-8.984,11.452-8.96,18.736v80.312
			c0.021,6.788,2.93,13.246,8,17.76v30.24c0,8.837,7.163,16,16,16h32c8.837,0,16-7.163,16-16v-24h176v24c0,8.837,7.163,16,16,16h32
			c8.837,0,16-7.163,16-16v-30.24c5.07-4.514,7.979-10.972,8-17.76v-80.312C400.031,328.404,396.714,321.502,391.009,316.955z
			 M218.153,238.331l4.208-6.32h100.728c3.772-0.001,7.032,2.632,7.824,6.32l10.704,49.68H224.713
			c5.888-11.098,3.871-24.736-4.976-33.656C215.471,250.068,214.809,243.371,218.153,238.331z M184.089,238.331l4.208-6.32h15.144
			c-5.88,11.101-3.861,24.736,4.984,33.656c4.258,4.28,4.926,10.962,1.6,16l-4.208,6.32h-15.16
			c5.88-11.101,3.861-24.736-4.984-33.656C181.42,250.047,180.759,243.366,184.089,238.331z M149.041,238.275
			c0.795-3.658,4.033-6.266,7.776-6.264h12.56c-5.88,11.101-3.861,24.736,4.984,33.656c4.258,4.28,4.926,10.962,1.6,16l-4.208,6.32
			h-33.76L149.041,238.275z M136.017,464.011h-32v-24h32V464.011z M376.017,464.011h-32v-24h32V464.011z M384.017,416.011
			c0,4.418-3.582,8-8,8h-272c-4.418,0-8-3.582-8-8v-8h288V416.011z M384.017,392.011h-288v-56.312c-0.005-2.429,1.099-4.727,3-6.24
			l29.6-23.68c0.649-0.556,1.269-1.146,1.856-1.768h218.944c0.432,0.4,0.8,0.8,1.296,1.2l30.296,24.24
			c1.9,1.517,3.007,3.816,3.008,6.248V392.011z"/>
	</g>
</g>
<g>
	<g>
		<path d="M132.017,328.011c-15.464,0-28,12.536-28,28c0,15.464,12.536,28,28,28s28-12.536,28-28
			C160.017,340.547,147.481,328.011,132.017,328.011z M132.017,368.011c-6.627,0-12-5.373-12-12c0-6.627,5.373-12,12-12
			c6.627,0,12,5.373,12,12C144.017,362.639,138.645,368.011,132.017,368.011z"/>
	</g>
</g>
<g>
	<g>
		<path d="M348.017,328.011c-15.464,0-28,12.536-28,28c0,15.464,12.536,28,28,28c15.464,0,28-12.536,28-28
			C376.017,340.547,363.481,328.011,348.017,328.011z M348.017,368.011c-6.627,0-12-5.373-12-12c0-6.627,5.373-12,12-12
			c6.627,0,12,5.373,12,12C360.017,362.639,354.645,368.011,348.017,368.011z"/>
	</g>
</g>
<g>
	<g>
		<path d="M288.017,328.011h-96c-8.837,0-16,7.163-16,16v24c0,8.837,7.163,16,16,16h96c8.837,0,16-7.163,16-16v-24
			C304.017,335.175,296.854,328.011,288.017,328.011z M288.017,368.011h-96v-24h96V368.011z"/>
	</g>
</g>
<g>
	<g>
		<path d="M260.105,164.691l-12.656-31.648c-1.214-3.04-4.158-5.033-7.432-5.032c-3.274-0.001-6.218,1.992-7.432,5.032
			l-12.656,31.648c-4.385,11.094,1.054,23.643,12.149,28.027c11.094,4.385,23.643-1.054,28.027-12.149
			C262.121,175.469,262.121,169.792,260.105,164.691z M244.017,176.715c-2.109,2.263-5.652,2.387-7.915,0.279
			c-1.747-1.628-2.269-4.184-1.301-6.367l5.216-13.08l5.232,13.08C246.105,172.719,245.619,175.12,244.017,176.715z"/>
	</g>
</g>
<g>
	<g>
		<path d="M342.513,164.691l-12.664-31.648c-1.214-3.04-4.158-5.033-7.432-5.032c-3.271,0.002-6.211,1.995-7.424,5.032
			l-12.664,31.648c-4.379,11.096,1.066,23.642,12.163,28.021c11.097,4.379,23.642-1.066,28.021-12.163
			C344.524,175.455,344.524,169.786,342.513,164.691z M326.417,176.715c-2.118,2.254-5.662,2.365-7.916,0.247
			c-1.73-1.625-2.247-4.163-1.292-6.336l5.224-13.08l5.232,13.08c0.837,2.106,0.323,4.51-1.304,6.088H326.417z"/>
	</g>
</g>
<g>
	<g>
		<path d="M174.513,164.691l-12.664-31.648c-1.214-3.04-4.159-5.033-7.432-5.032c-3.271,0.002-6.211,1.995-7.424,5.032
			l-12.664,31.648c-4.379,11.096,1.066,23.642,12.163,28.021s23.642-1.066,28.021-12.163
			C176.524,175.455,176.524,169.786,174.513,164.691z M158.417,176.715c-2.118,2.254-5.662,2.365-7.916,0.247
			c-1.73-1.625-2.247-4.163-1.292-6.336l5.224-13.08l5.232,13.08c0.837,2.106,0.323,4.51-1.304,6.088H158.417z"/>
	</g>
</g>
<g>
</g>
<g>
</g>
<g>
</g>
<g>
</g>
<g>
</g>
<g>
</g>
<g>
</g>
<g>
</g>
<g>
</g>
<g>
</g>
<g>
</g>
<g>
</g>
<g>
</g>
<g>
</g>
<g>
</g>
</symbol><symbol id="icon-cleaning" viewBox="0 0 64 64">
<g><g><path d="m53.496 63.996h-23.997c-2.757 0-5-2.243-5-5v-16.996c0-.553.447-1 1-1s1 .447 1 1v16.996c0 1.654 1.346 3 3 3h23.997c1.654 0 3-1.346 3-3v-16.996c0-.553.447-1 1-1s1 .447 1 1v16.996c0 2.757-2.243 5-5 5z"/></g><g><path d="m55.496 40h-28.999c-.553 0-1-.447-1-1v-5.999c0-.553.447-1 1-1h28.999c.553 0 1 .447 1 1v5.999c0 .553-.447 1-1 1zm-27.999-2h26.999v-3.999h-26.999z"/></g><g><path d="m53.497 34.001h-13.999c-.553 0-1-.447-1-1v-6c0-.553.447-1 1-1h13.999c.553 0 1 .447 1 1v6c0 .553-.447 1-1 1zm-12.999-2h11.999v-4h-11.999z"/></g><g><path d="m51.499 28.001h-9.002c-.553 0-1-.447-1-1v-6c0-.553.447-1 1-1h9.002c.553 0 1 .447 1 1v6c0 .553-.447 1-1 1zm-8.002-2h7.002v-4h-7.002z"/></g><g><path d="m61.501 43.005h-3c-.033 0-.066-.002-.1-.005h-33.904c-.553 0-1-.447-1-1v-3c0-.553.447-1 1-1h33.004v-12.999h-6.002c-.553 0-1-.447-1-1v-3c0-.553.447-1 1-1h10.002c.553 0 1 .447 1 1v21.004c0 .553-.447 1-1 1zm-2.9-2h1.9v-19.004h-8.002v1h6.002c.553 0 1 .447 1 1v14.999c0 .553-.447 1-1 1h-33.004v1h33.004c.033 0 .066.002.1.005z"/></g><g><path d="m35.502 34.001h-6.999c-.553 0-1-.447-1-1v-5.001c0-.553.447-1 1-1h6.999c.553 0 1 .447 1 1v5.001c0 .553-.447 1-1 1zm-5.999-2h4.999v-3.001h-4.999z"/></g><g><path d="m34.502 16.001c-.553 0-1-.447-1-1 0-7.168-5.832-13-13-13s-13 5.832-13 13c0 .553-.447 1-1 1s-1-.447-1-1c0-8.271 6.729-15 15-15s15 6.729 15 15c0 .553-.447 1-1 1z"/></g><g><path d="m29.503 16.001c-.553 0-1-.447-1-1 0-4.412-3.589-8.001-8.001-8.001s-8.001 3.589-8.001 8.001c0 .553-.447 1-1 1s-1-.447-1-1c0-5.515 4.486-10.001 10.001-10.001s10.001 4.486 10.001 10.001c0 .553-.447 1-1 1z"/></g><g><path d="m34.502 29c-.553 0-1-.447-1-1v-12.999c0-.553.447-1 1-1s1 .447 1 1v12.999c0 .553-.447 1-1 1z"/></g><g><path d="m29.503 29c-.553 0-1-.447-1-1v-12.999c0-.553.447-1 1-1s1 .447 1 1v12.999c0 .553-.447 1-1 1z"/></g><g><path d="m11.501 42.004c-.553 0-1-.447-1-1v-26.003c0-.553.447-1 1-1s1 .447 1 1v26.003c0 .553-.447 1-1 1z"/></g><g><path d="m6.502 42.004c-.553 0-1-.447-1-1v-26.003c0-.553.447-1 1-1s1 .447 1 1v26.003c0 .553-.447 1-1 1z"/></g><g><path d="m12.502 50.001h-7c-.553 0-1-.447-1-1v-7.997c0-.553.447-1 1-1h7c.553 0 1 .447 1 1v7.997c0 .553-.447 1-1 1zm-6-2h5v-5.997h-5z"/></g><g><path d="m15.524 62.002c-.004 0-.012 0-.02 0h-13.005c-.308 0-.599-.142-.788-.385-.189-.242-.257-.56-.182-.858l3.003-12.001c.111-.444.511-.757.97-.757h7c.459 0 .858.313.97.757l2.957 11.814c.062.131.096.276.096.43-.001.553-.448 1-1.001 1zm-11.744-2h10.443l-2.502-10.001h-5.439z"/></g><g><path d="m3.001 63.999c-.553 0-1-.447-1-1v-1.997c0-.553.447-1 1-1s1 .447 1 1v1.997c0 .553-.447 1-1 1z"/></g><g><path d="m6 63.999c-.553 0-1-.447-1-1v-1.997c0-.553.447-1 1-1s1 .447 1 1v1.997c0 .553-.447 1-1 1z"/></g><g><path d="m9.001 63.999c-.553 0-1-.447-1-1v-1.997c0-.553.447-1 1-1s1 .447 1 1v1.997c0 .553-.447 1-1 1z"/></g><g><path d="m12.002 63.999c-.553 0-1-.447-1-1v-1.997c0-.553.447-1 1-1s1 .447 1 1v1.997c0 .553-.447 1-1 1z"/></g><g><path d="m15.003 63.999c-.553 0-1-.447-1-1v-1.997c0-.553.447-1 1-1s1 .447 1 1v1.997c0 .553-.447 1-1 1z"/></g></g></symbol><symbol id="icon-tint" viewBox="0 0 64 64">
<g><g><path d="m63 42.499c-.553 0-1-.447-1-1 0-14.888-12.112-27-27.001-27-.553 0-1-.447-1-1s.447-1 1-1c15.991 0 29.001 13.01 29.001 29 0 .553-.447 1-1 1z"/></g><g><path d="m60 42.499c-.553 0-1-.447-1-1 0-13.233-10.767-24-24.001-24-.553 0-1-.447-1-1s.447-1 1-1c14.337 0 26.001 11.663 26.001 26 0 .553-.447 1-1 1z"/></g><g><path d="m63 51.501c-.553 0-1-.447-1-1v-9.002c0-.553.447-1 1-1s1 .447 1 1v9.002c0 .553-.447 1-1 1z"/></g><g><path d="m60 48.498c-.553 0-1-.447-1-1v-5.999c0-.553.447-1 1-1s1 .447 1 1v5.999c0 .553-.447 1-1 1z"/></g><g><path d="m63 51.501h-62c-.553 0-1-.447-1-1s.447-1 1-1h62c.553 0 1 .447 1 1s-.447 1-1 1z"/></g><g><path d="m34.999 14.499h-33.999c-.553 0-1-.447-1-1s.447-1 1-1h33.999c.553 0 1 .447 1 1s-.447 1-1 1z"/></g><g><path d="m1 51.501c-.553 0-1-.447-1-1v-37.002c0-.553.447-1 1-1s1 .447 1 1v37.002c0 .553-.447 1-1 1z"/></g><g><path d="m4 41.491c-.553 0-1-.447-1-1v-23.992c0-.553.447-1 1-1s1 .447 1 1v23.992c0 .553-.447 1-1 1z"/></g><g><path d="m34.999 17.499h-30.999c-.553 0-1-.447-1-1s.447-1 1-1h30.999c.553 0 1 .447 1 1s-.447 1-1 1z"/></g><g><path d="m60 48.498h-48.998c-.553 0-1-.447-1-1s.447-1 1-1h48.998c.553 0 1 .447 1 1s-.447 1-1 1z"/></g><g><path d="m10.998 48.498c-.256 0-.512-.098-.707-.293l-6.998-7.002c-.391-.391-.391-1.023 0-1.414s1.023-.391 1.414 0l6.998 7.002c.391.391.391 1.023 0 1.414-.195.195-.451.293-.707.293z"/></g><g><path d="m11.002 48.498c-.553 0-1-.448-1-1l.001-6.999c0-.553.448-1 1-1 .553 0 1 .448 1 1l-.001 6.999c0 .553-.448 1-1 1z"/></g><g><path d="m11.003 41.499h-7.003c-.553 0-1-.447-1-1s.447-1 1-1h7.003c.553 0 1 .447 1 1s-.447 1-1 1z"/></g></g></symbol></svg>